<?xml version="1.0" encoding="UTF-8" standalone="no"?>
<!-- Created with Inkscape (http://www.inkscape.org/) -->

<svg
   xmlns:dc="http://purl.org/dc/elements/1.1/"
   xmlns:cc="http://creativecommons.org/ns#"
   xmlns:rdf="http://www.w3.org/1999/02/22-rdf-syntax-ns#"
   xmlns:svg="http://www.w3.org/2000/svg"
   xmlns="http://www.w3.org/2000/svg"
   xmlns:xlink="http://www.w3.org/1999/xlink"
   xmlns:sodipodi="http://sodipodi.sourceforge.net/DTD/sodipodi-0.dtd"
   xmlns:inkscape="http://www.inkscape.org/namespaces/inkscape"
   width="106.04352mm"
   height="27.107885mm"
   viewBox="0 0 106.04352 27.107885"
   version="1.1"
   id="svg8"
   inkscape:version="0.92.4 (5da689c313, 2019-01-14)"
   sodipodi:docname="koma-logo.svg"
   inkscape:export-filename="C:\Users\knutankv\git-repos\koma\koma-logo.png"
   inkscape:export-xdpi="262.19"
   inkscape:export-ydpi="262.19">
  <defs
     id="defs2">
    <linearGradient
       id="linearGradient4831"
       inkscape:collect="always">
      <stop
         id="stop4827"
         offset="0"
         style="stop-color:#3fd3d2;stop-opacity:1" />
      <stop
         id="stop4829"
         offset="1"
         style="stop-color:#3addd3;stop-opacity:1" />
    </linearGradient>
    <linearGradient
       inkscape:collect="always"
       id="linearGradient4750">
      <stop
         style="stop-color:#5f96ca;stop-opacity:1"
         offset="0"
         id="stop4746" />
      <stop
         style="stop-color:#3addd3;stop-opacity:1"
         offset="1"
         id="stop4748" />
    </linearGradient>
    <linearGradient
       id="linearGradient4680"
       inkscape:collect="always">
      <stop
         id="stop4676"
         offset="0"
         style="stop-color:#5f96ca;stop-opacity:1" />
      <stop
         id="stop4678"
         offset="1"
         style="stop-color:#3addd3;stop-opacity:1" />
    </linearGradient>
    <linearGradient
       inkscape:collect="always"
       xlink:href="#linearGradient4680"
       id="linearGradient4674"
       x1="77.831459"
       y1="71.957489"
       x2="70.815636"
       y2="66.812553"
       gradientUnits="userSpaceOnUse"
       gradientTransform="rotate(0.60595127,265.80775,-174.88392)" />
    <linearGradient
       inkscape:collect="always"
       xlink:href="#linearGradient4680"
       id="linearGradient4738"
       gradientUnits="userSpaceOnUse"
       gradientTransform="matrix(0.99994408,-0.01057565,-0.01057565,-0.99994408,-1.9682806,151.48344)"
       x1="77.831459"
       y1="71.957489"
       x2="70.815636"
       y2="66.812553" />
    <linearGradient
       inkscape:collect="always"
       xlink:href="#linearGradient4750"
       id="linearGradient4744"
       x1="118.29685"
       y1="74.233788"
       x2="172.54314"
       y2="74.233788"
       gradientUnits="userSpaceOnUse" />
    <linearGradient
       inkscape:collect="always"
       xlink:href="#linearGradient4831"
       id="linearGradient4758"
       x1="89.458389"
       y1="74.978317"
       x2="169.0625"
       y2="73.944077"
       gradientUnits="userSpaceOnUse"
       gradientTransform="matrix(0.98489705,0,0,0.98489705,0.7607247,1.4853295)" />
    <linearGradient
       inkscape:collect="always"
       xlink:href="#linearGradient4750"
       id="linearGradient4764"
       gradientUnits="userSpaceOnUse"
       x1="92.651169"
       y1="87.273964"
       x2="166.24982"
       y2="61.571587"
       gradientTransform="translate(2.1381562,-50.78121)" />
    <linearGradient
       inkscape:collect="always"
       xlink:href="#linearGradient4680"
       id="linearGradient4775"
       gradientUnits="userSpaceOnUse"
       gradientTransform="matrix(-0.53735691,0.487693,-0.84332281,-0.3178505,146.49264,65.369254)"
       x1="77.831459"
       y1="71.957489"
       x2="70.815636"
       y2="66.812553" />
    <linearGradient
       inkscape:collect="always"
       xlink:href="#linearGradient4750"
       id="linearGradient4783"
       x1="52.475006"
       y1="79.838417"
       x2="57.475506"
       y2="79.838417"
       gradientUnits="userSpaceOnUse"
       gradientTransform="matrix(1.5359246,0,0,1.5359246,-20.081314,-48.247779)" />
  </defs>
  <sodipodi:namedview
     id="base"
     pagecolor="#ffffff"
     bordercolor="#666666"
     borderopacity="1.0"
     inkscape:pageopacity="0.0"
     inkscape:pageshadow="2"
     inkscape:zoom="2.4853142"
     inkscape:cx="78.300013"
     inkscape:cy="80.001254"
     inkscape:document-units="mm"
     inkscape:current-layer="layer1"
     showgrid="false"
     inkscape:window-width="2560"
     inkscape:window-height="1377"
     inkscape:window-x="-8"
     inkscape:window-y="-8"
     inkscape:window-maximized="1"
     fit-margin-top="0"
     fit-margin-left="0"
     fit-margin-right="0"
     fit-margin-bottom="0"
     inkscape:snap-global="false"
     showguides="false" />
  <metadata
     id="metadata5">
    <rdf:RDF>
      <cc:Work
         rdf:about="">
        <dc:format>image/svg+xml</dc:format>
        <dc:type
           rdf:resource="http://purl.org/dc/dcmitype/StillImage" />
        <dc:title />
      </cc:Work>
    </rdf:RDF>
  </metadata>
  <g
     inkscape:label="Layer 1"
     inkscape:groupmode="layer"
     id="layer1"
     transform="translate(-62.392565,-60.812833)">
    <g
       aria-label="OMA"
       transform="scale(1.0054396,0.99458984)"
       style="font-style:normal;font-variant:normal;font-weight:normal;font-stretch:normal;font-size:10.63416195px;line-height:11.07725143px;font-family:Verdana;-inkscape-font-specification:Verdana;letter-spacing:0px;word-spacing:0px;fill:url(#linearGradient4758);fill-opacity:1;stroke:none;stroke-width:0.26458335"
       id="text4742">
      <path
         d="m 111.2258,74.787023 q 0,3.818845 -1.66365,6.919294 -1.62585,3.100449 -4.53725,4.915345 -2.91139,1.777087 -6.578996,1.777087 -3.667604,0 -6.579001,-1.777087 -2.911397,-1.814896 -4.575052,-4.915345 -1.625845,-3.100449 -1.625845,-6.919294 0,-3.818845 1.625845,-6.919294 1.663655,-3.100448 4.575052,-4.877535 2.911397,-1.814896 6.579001,-1.814896 3.667606,0 6.578996,1.814896 2.9114,1.777087 4.53725,4.877535 1.66365,3.100449 1.66365,6.919294 z m -3.89446,0 q 0,-2.835776 -1.13431,-5.104397 -1.13432,-2.306431 -3.17607,-3.591983 -2.00395,-1.323362 -4.575056,-1.323362 -2.571104,0 -4.612863,1.285552 -2.003948,1.285552 -3.138259,3.591983 -1.13431,2.268621 -1.13431,5.142207 0,2.835776 1.13431,5.142208 1.134311,2.26862 3.138259,3.591983 2.041759,1.285552 4.612863,1.285552 2.571106,0 4.575056,-1.285552 2.04175,-1.323363 3.17607,-3.591983 1.13431,-2.306432 1.13431,-5.142208 z"
         style="font-style:normal;font-variant:normal;font-weight:normal;font-stretch:normal;font-size:37.81034851px;font-family:'Quicksand Medium';-inkscape-font-specification:'Quicksand Medium, ';fill:url(#linearGradient4758);fill-opacity:1;stroke:none;stroke-width:0.26458335"
         id="path842" />
      <path
         d="m 138.96796,61.515591 q 0.75621,0.03781 1.28556,0.567155 0.52934,0.491535 0.52934,1.247742 v 22.87526 q 0,0.756207 -0.52934,1.285552 -0.49154,0.529345 -1.32337,0.529345 -0.83182,0 -1.36117,-0.491534 -0.52934,-0.529345 -0.52934,-1.323363 V 68.699557 L 129.70443,79.8158 q -0.26467,0.340293 -0.68059,0.567155 -0.3781,0.226862 -0.79402,0.189051 -0.3781,0.03781 -0.79401,-0.189051 -0.37811,-0.226862 -0.64278,-0.567155 l -7.37302,-11.456536 v 17.846484 q 0,0.794018 -0.49153,1.323363 -0.45373,0.491534 -1.24774,0.491534 -0.75621,0 -1.24774,-0.491534 -0.45373,-0.529345 -0.45373,-1.323363 v -22.87526 q 0,-0.718397 0.52935,-1.247742 0.52934,-0.567155 1.32336,-0.567155 0.45372,0 0.86964,0.226862 0.45372,0.226862 0.71839,0.604966 l 8.96106,13.573915 9.07448,-13.573915 q 0.60497,-0.831828 1.51241,-0.831828 z"
         style="font-style:normal;font-variant:normal;font-weight:normal;font-stretch:normal;font-size:37.81034851px;font-family:'Quicksand Medium';-inkscape-font-specification:'Quicksand Medium, ';fill:url(#linearGradient4758);fill-opacity:1;stroke:none;stroke-width:0.26458335"
         id="path844" />
      <path
         d="m 167.41139,85.676404 q 0.11343,0.340293 0.11343,0.718396 0,0.756207 -0.52935,1.247742 -0.49153,0.491534 -1.17212,0.491534 -0.52934,0 -0.98307,-0.302483 -0.41591,-0.340293 -0.68058,-0.907448 l -2.34425,-5.558121 h -11.68339 l -2.30643,5.595931 q -0.18906,0.567156 -0.64278,0.869638 -0.41591,0.302483 -0.94526,0.302483 -0.79402,0 -1.20993,-0.415914 -0.41591,-0.415913 -0.41591,-1.13431 0,-0.151241 0.0756,-0.604966 l 9.64164,-23.366795 q 0.26467,-0.604966 0.71839,-0.907448 0.49154,-0.340294 1.0965,-0.264673 0.56716,0 1.02088,0.302483 0.45373,0.302483 0.64278,0.869638 z m -15.84254,-7.751122 h 8.80981 l -4.42381,-10.586897 z"
         style="font-style:normal;font-variant:normal;font-weight:normal;font-stretch:normal;font-size:37.81034851px;font-family:'Quicksand Medium';-inkscape-font-specification:'Quicksand Medium, ';fill:url(#linearGradient4758);fill-opacity:1;stroke:none;stroke-width:0.26458335"
         id="path846" />
    </g>
    <g
       aria-label="K"
       style="font-style:normal;font-variant:normal;font-weight:normal;font-stretch:normal;font-size:10.79723167px;line-height:11.24711514px;font-family:Verdana;-inkscape-font-specification:Verdana;letter-spacing:0px;word-spacing:0px;fill:#3fd4d2;fill-opacity:1;stroke:none;stroke-width:0.26458332"
       id="text4762"
       transform="translate(-2.5513393,-0.28348214)" />
    <g
       id="g4792"
       style="stroke-width:4.23333311;stroke-miterlimit:4;stroke-dasharray:none">
      <path
         inkscape:connector-curvature="0"
         id="path4781"
         d="M 64.356531,62.803434 V 85.952581"
         style="fill:none;stroke:url(#linearGradient4783);stroke-width:3.88100004;stroke-linecap:round;stroke-linejoin:miter;stroke-miterlimit:4;stroke-dasharray:none;stroke-opacity:1" />
      <path
         inkscape:transform-center-y="-5.7142322"
         inkscape:transform-center-x="-9.3511648"
         style="fill:none;fill-opacity:1;stroke:url(#linearGradient4674);stroke-width:3.88055563;stroke-linecap:round;stroke-linejoin:round;stroke-miterlimit:4;stroke-dasharray:none;stroke-opacity:1;paint-order:stroke fill markers"
         d="M 64.489945,74.268545 82.902474,62.767842"
         id="path4538"
         inkscape:connector-curvature="0" />
      <path
         inkscape:connector-curvature="0"
         id="path4736"
         d="M 64.35631,74.394066 82.768839,85.894769"
         style="fill:none;fill-opacity:1;stroke:url(#linearGradient4738);stroke-width:3.88055563;stroke-linecap:round;stroke-linejoin:round;stroke-miterlimit:4;stroke-dasharray:none;stroke-opacity:1;paint-order:stroke fill markers"
         inkscape:transform-center-x="-9.3511648"
         inkscape:transform-center-y="5.7142322" />
    </g>
  </g>
</svg>
